<?xml version="1.0" encoding="UTF-8"?>
<svg version="1.1" xmlns="http://www.w3.org/2000/svg" width="500" height="500">
<path d="M0 0 C1.18505859 1.48364258 1.18505859 1.48364258 2.1484375 3.39453125 C2.51138916 4.09779541 2.87434082 4.80105957 3.24829102 5.52563477 C3.80601196 6.65763306 3.80601196 6.65763306 4.375 7.8125 C4.76421631 8.57554443 5.15343262 9.33858887 5.55444336 10.12475586 C6.71637265 12.41003522 7.85954499 14.7039445 9 17 C9.63836589 18.26610798 10.27760576 19.53177592 10.91796875 20.796875 C12.29182931 23.52501616 13.65302611 26.25851196 15 29 C15.66 29 16.32 29 17 29 C17.49628906 27.99582031 17.99257812 26.99164063 18.50390625 25.95703125 C22.84279075 17.21052744 27.32460177 8.57156342 32 0 C36.95 0 41.9 0 47 0 C47.6182937 4.32805588 48.12533805 7.93196281 48.12939453 12.18505859 C48.13254669 13.14229828 48.13569885 14.09953796 48.13894653 15.08578491 C48.13591019 16.60179794 48.13591019 16.60179794 48.1328125 18.1484375 C48.13376923 19.20157135 48.13472595 20.2547052 48.13571167 21.3397522 C48.13638948 23.55348775 48.13456316 25.76722534 48.13037109 27.98095703 C48.12498499 31.38448475 48.13034603 34.78788243 48.13671875 38.19140625 C48.13605853 40.34375029 48.13477853 42.49609425 48.1328125 44.6484375 C48.13483673 45.67125824 48.13686096 46.69407898 48.13894653 47.74789429 C48.13421829 49.15538437 48.13421829 49.15538437 48.12939453 50.59130859 C48.12859894 51.42068939 48.12780334 52.25007019 48.12698364 53.10458374 C48 55 48 55 47 56 C42.71 56 38.42 56 34 56 C33.67 46.43 33.34 36.86 33 27 C31.783125 29.475 30.56625 31.95 29.3125 34.5 C28.21178505 36.68772346 27.10068023 38.86973357 25.98681641 41.05078125 C25.18311311 42.63830404 24.40592038 44.23922625 23.63671875 45.84375 C22.2258649 48.52000885 20.99087001 50.6101495 18.09375 51.75 C15.69683808 52.03619844 14.24547025 51.88806508 12 51 C9.77572588 48.27526421 8.5305034 46.11801696 7 43 C5.97719629 41.08142065 4.94063344 39.17064265 3.90307617 37.26000977 C2.24863451 34.18405748 0.62783001 31.09011798 -1 28 C-1.33 37.24 -1.66 46.48 -2 56 C-6.29 56 -10.58 56 -15 56 C-16.27469407 53.45061185 -16.12016184 51.66959002 -16.11352539 48.81591797 C-16.11344986 47.73494843 -16.11337433 46.65397888 -16.11329651 45.54025269 C-16.10813522 44.36939117 -16.10297394 43.19852966 -16.09765625 41.9921875 C-16.0962413 40.79643097 -16.09482635 39.60067444 -16.09336853 38.36868286 C-16.08775663 34.53743013 -16.07520208 30.70623516 -16.0625 26.875 C-16.05748653 24.28255293 -16.05292336 21.69010494 -16.04882812 19.09765625 C-16.03778333 12.73175102 -16.02103359 6.36587963 -16 0 C-14.08416353 -0.1958009 -12.16727461 -0.38132214 -10.25 -0.5625 C-8.64898437 -0.71912109 -8.64898437 -0.71912109 -7.015625 -0.87890625 C-4.34262079 -0.98624191 -2.48969892 -0.91704489 0 0 Z " fill="#6A6969" transform="translate(213,192)"/>
<path d="M0 0 C1.27230469 0.00902344 2.54460937 0.01804688 3.85546875 0.02734375 C5.31919922 0.04474609 5.31919922 0.04474609 6.8125 0.0625 C6.98265625 0.70058594 7.1528125 1.33867187 7.328125 1.99609375 C7.57046875 2.82238281 7.8128125 3.64867187 8.0625 4.5 C8.41054687 5.73556641 8.41054687 5.73556641 8.765625 6.99609375 C9.60939889 9.21960877 9.60939889 9.21960877 11.703125 9.83984375 C16.0354172 10.29714126 20.71917631 10.74549879 24.8125 9.0625 C25.9500213 6.98215706 25.9500213 6.98215706 26.5625 4.5 C26.80484375 3.67371094 27.0471875 2.84742188 27.296875 1.99609375 C27.46703125 1.35800781 27.6371875 0.71992188 27.8125 0.0625 C44.35142528 -0.7737378 44.35142528 -0.7737378 51.51953125 5.57421875 C52.8125 7.0625 52.8125 7.0625 52.8125 9.0625 C53.4725 9.0625 54.1325 9.0625 54.8125 9.0625 C54.8125 9.7225 54.8125 10.3825 54.8125 11.0625 C55.38355469 11.31386719 55.95460938 11.56523437 56.54296875 11.82421875 C59.12282205 13.23181513 61.00193905 14.8450898 63.125 16.875 C63.84300781 17.54144531 64.56101562 18.20789063 65.30078125 18.89453125 C66.8125 21.0625 66.8125 21.0625 66.9375 23.3984375 C65.26619506 27.35618045 62.54814889 29.9062817 59.5 32.875 C58.91798828 33.47248047 58.33597656 34.06996094 57.73632812 34.68554688 C57.16720703 35.24951172 56.59808594 35.81347656 56.01171875 36.39453125 C55.49440186 36.90733643 54.97708496 37.4201416 54.4440918 37.94848633 C52.8125 39.0625 52.8125 39.0625 48.8125 39.0625 C48.8125 38.4025 48.8125 37.7425 48.8125 37.0625 C48.1525 37.0625 47.4925 37.0625 46.8125 37.0625 C46.77491577 38.82678345 46.77491577 38.82678345 46.73657227 40.62670898 C46.64267194 44.97464622 46.54240952 49.32241716 46.44018555 53.67016602 C46.39677067 55.55489218 46.35510057 57.43965936 46.31518555 59.32446289 C46.25764107 62.02763249 46.19390196 64.73059436 46.12890625 67.43359375 C46.11219376 68.28150986 46.09548126 69.12942596 46.07826233 70.0030365 C45.92637171 75.94862829 45.92637171 75.94862829 44.8125 77.0625 C43.09931054 77.16131593 41.38205197 77.19048969 39.66601562 77.19189453 C38.56817749 77.19504669 37.47033936 77.19819885 36.3392334 77.20144653 C35.14447388 77.1994223 33.94971436 77.19739807 32.71875 77.1953125 C31.50175415 77.19626923 30.2847583 77.19722595 29.03088379 77.19821167 C26.45174101 77.19889372 23.87259653 77.19703772 21.29345703 77.19287109 C17.32971364 77.18752322 13.36608358 77.19281529 9.40234375 77.19921875 C6.90364558 77.19855797 4.40494748 77.19727682 1.90625 77.1953125 C0.11411072 77.19834885 0.11411072 77.19834885 -1.7142334 77.20144653 C-2.81207153 77.19829437 -3.90990967 77.19514221 -5.04101562 77.19189453 C-6.49876404 77.19070114 -6.49876404 77.19070114 -7.98596191 77.18948364 C-10.1875 77.0625 -10.1875 77.0625 -11.1875 76.0625 C-11.34773562 73.17997355 -11.44704029 70.31871473 -11.50390625 67.43359375 C-11.52468735 66.56936295 -11.54546844 65.70513214 -11.56687927 64.81471252 C-11.63247114 62.04322555 -11.69130418 59.27164079 -11.75 56.5 C-11.79317608 54.62564077 -11.83679006 52.75129157 -11.88085938 50.87695312 C-11.98816227 46.27223664 -12.08940215 41.66742142 -12.1875 37.0625 C-13.8375 37.7225 -15.4875 38.3825 -17.1875 39.0625 C-19.51253934 36.99281698 -21.82011727 34.90458986 -24.125 32.8125 C-24.78435547 32.22597656 -25.44371094 31.63945312 -26.12304688 31.03515625 C-26.75146484 30.46152344 -27.37988281 29.88789063 -28.02734375 29.296875 C-28.60863037 28.77319336 -29.18991699 28.24951172 -29.78881836 27.70996094 C-31.39833946 25.81415916 -31.88106797 24.51769698 -32.1875 22.0625 C-31.8575 21.4025 -31.5275 20.7425 -31.1875 20.0625 C-30.5275 20.0625 -29.8675 20.0625 -29.1875 20.0625 C-29.1875 19.4025 -29.1875 18.7425 -29.1875 18.0625 C-28.5275 18.0625 -27.8675 18.0625 -27.1875 18.0625 C-26.919375 17.423125 -26.65125 16.78375 -26.375 16.125 C-25.1875 14.0625 -25.1875 14.0625 -22.1875 13.0625 C-22.1875 12.4025 -22.1875 11.7425 -22.1875 11.0625 C-21.5275 11.0625 -20.8675 11.0625 -20.1875 11.0625 C-19.93871094 10.46824219 -19.68992187 9.87398437 -19.43359375 9.26171875 C-18.00684287 6.74365999 -16.58322921 5.56517908 -14.25 3.875 C-13.56035156 3.36582031 -12.87070313 2.85664063 -12.16015625 2.33203125 C-8.15176421 -0.24762699 -4.64820766 -0.04264411 0 0 Z M-17.0625 15.75 C-17.65546875 16.35650391 -18.2484375 16.96300781 -18.859375 17.58789062 C-20.30905922 19.07264785 -21.74926468 20.56664991 -23.1875 22.0625 C-21.88378054 25.02434809 -20.60821276 26.82020306 -18.0625 28.8125 C-17.11375 29.555 -16.165 30.2975 -15.1875 31.0625 C-13.2075 29.0825 -11.2275 27.1025 -9.1875 25.0625 C-7.8675 25.7225 -6.5475 26.3825 -5.1875 27.0625 C-4.8575 41.2525 -4.5275 55.4425 -4.1875 70.0625 C1.0341517 70.80845024 5.85594371 71.2099407 11.08203125 71.1953125 C11.84424484 71.19626923 12.60645844 71.19722595 13.39176941 71.19821167 C14.98928918 71.19888773 16.58681179 71.1970738 18.18432617 71.19287109 C20.63531574 71.1874773 23.08612516 71.19285446 25.53710938 71.19921875 C27.0937504 71.19855859 28.65039132 71.19727873 30.20703125 71.1953125 C30.94033157 71.19733673 31.6736319 71.19936096 32.42915344 71.20144653 C36.24726007 71.24923333 36.24726007 71.24923333 39.8125 70.0625 C40.1425 55.5425 40.4725 41.0225 40.8125 26.0625 C45.56910492 26.0625 46.27994099 27.16399004 49.8125 30.0625 C50.8025 30.0625 51.7925 30.0625 52.8125 30.0625 C52.8125 29.4025 52.8125 28.7425 52.8125 28.0625 C53.4725 28.0625 54.1325 28.0625 54.8125 28.0625 C54.8125 27.4025 54.8125 26.7425 54.8125 26.0625 C55.4725 26.0625 56.1325 26.0625 56.8125 26.0625 C56.8125 25.4025 56.8125 24.7425 56.8125 24.0625 C57.8025 23.5675 57.8025 23.5675 58.8125 23.0625 C58.1525 22.423125 57.4925 21.78375 56.8125 21.125 C55.08702768 19.42389876 53.50241296 17.69208222 51.9453125 15.83203125 C47.8859056 10.99075415 44.96968943 7.7728304 38.8125 6.0625 C35.51964899 5.80980583 35.51964899 5.80980583 32.8125 6.0625 C32.255625 7.155625 31.69875 8.24875 31.125 9.375 C29.3422921 12.87438958 27.36899293 14.39004157 23.8125 16.0625 C17.96205867 16.87526469 12.57377354 16.8824032 7.1875 14.375 C4.8232608 12.07297762 3.25361159 10.02478493 1.8125 7.0625 C1.8125 6.7325 1.8125 6.4025 1.8125 6.0625 C-6.83111951 5.44509861 -11.44865568 9.88848608 -17.0625 15.75 Z " fill="#868485" transform="translate(113.1875,210.9375)"/>
<path d="M0 0 C1.093125 0.00257813 2.18625 0.00515625 3.3125 0.0078125 C4.405625 0.00523437 5.49875 0.00265625 6.625 0 C9.3125 0.1328125 9.3125 0.1328125 10.3125 1.1328125 C10.40626053 2.94336275 10.4299411 4.75758451 10.42602539 6.57055664 C10.42594986 7.73168472 10.42587433 8.89281281 10.42579651 10.08912659 C10.42063522 11.3526445 10.41547394 12.61616241 10.41015625 13.91796875 C10.4087413 15.20392441 10.40732635 16.48988007 10.40586853 17.81480408 C10.40204418 21.23924693 10.39221462 24.66364759 10.38116455 28.08807373 C10.37094864 31.58019439 10.36637053 35.07232184 10.36132812 38.56445312 C10.35059226 45.42059203 10.33299614 52.2766959 10.3125 59.1328125 C6.0225 59.1328125 1.7325 59.1328125 -2.6875 59.1328125 C-2.6875 58.1428125 -2.6875 57.1528125 -2.6875 56.1328125 C-3.80125 56.7928125 -4.915 57.4528125 -6.0625 58.1328125 C-11.7845283 60.94841373 -17.07132201 61.32672523 -23.1484375 59.3203125 C-28.11648835 56.94357057 -31.46835742 53.97260061 -33.875 48.9921875 C-35.94923492 41.69247614 -36.21721874 32.34731485 -32.9375 25.3828125 C-30.01312554 21.15871606 -27.51553129 18.04118973 -22.6875 16.1328125 C-19.375 15.8671875 -19.375 15.8671875 -15.6875 15.8828125 C-14.470625 15.87765625 -13.25375 15.8725 -12 15.8671875 C-8.93461209 16.11299691 -7.25087048 16.5178891 -4.6875 18.1328125 C-4.59662109 16.30943359 -4.59662109 16.30943359 -4.50390625 14.44921875 C-4.41951668 12.86457022 -4.3348679 11.27993548 -4.25 9.6953125 C-4.21068359 8.89287109 -4.17136719 8.09042969 -4.13085938 7.26367188 C-3.74257521 0.18495284 -3.74257521 0.18495284 0 0 Z M-18.6875 29.1328125 C-21.29320161 32.69393803 -21.91593326 35.450581 -21.625 39.7578125 C-21.15365162 42.76836021 -20.72239468 44.08296296 -18.9375 46.6328125 C-16.36269641 48.34934823 -14.78039678 48.98193949 -11.6875 49.1328125 C-7.65116397 48.07567687 -5.86470349 46.6484102 -3.6875 43.1328125 C-2.83117159 38.3882902 -3.04835141 34.33736176 -5.3125 30.0703125 C-9.60513246 26.56842813 -13.96037919 26.194332 -18.6875 29.1328125 Z " fill="#6E6D6D" transform="translate(353.6875,188.8671875)"/>
<path d="M0 0 C3.59335721 1.46895327 6.21846447 3.31640586 9 6 C9.52851563 6.47824219 10.05703125 6.95648438 10.6015625 7.44921875 C15.0385119 12.36952298 15.05589427 18.65200744 15 25 C13.97834339 31.06551087 11.57244772 35.81669677 7 40 C-0.33757811 44.25924516 -8.02364165 45.32130372 -16.296875 43.4921875 C-20.93143696 41.97637212 -23.8000038 39.74856698 -27 36 C-27.556875 35.38125 -28.11375 34.7625 -28.6875 34.125 C-32.48919899 27.9698683 -32.45242714 21.85330435 -31 15 C-28.907957 8.24568974 -24.89078797 4.68493013 -19 1 C-13.87761227 -1.56119386 -5.62087611 -0.78748514 0 0 Z M-15.5 14.375 C-17.9255584 18.6197272 -18.49855482 21.0144518 -18 26 C-16.24009686 29.59524336 -16.24009686 29.59524336 -13 32 C-9.85601277 32.73285112 -7.14746925 32.70597441 -4 32 C-1.49839182 30.12379387 -0.38054348 28.76108697 1 26 C1.3506291 20.65290626 1.44403637 17.37127693 -2 13 C-6.61135685 10.69432157 -11.79091181 10.85136622 -15.5 14.375 Z " fill="#717070" transform="translate(300,205)"/>
<path d="M0 0 C1.17175781 -0.03673828 1.17175781 -0.03673828 2.3671875 -0.07421875 C7.72952687 -0.10130127 10.75353262 0.82235785 15 4.375 C19.56617454 10.17527577 20.13064454 14.76384467 20.09765625 21.98828125 C20.09443359 23.23544922 20.09121094 24.48261719 20.08789062 25.76757812 C20.07532227 27.70793945 20.07532227 27.70793945 20.0625 29.6875 C20.05798828 31.00041016 20.05347656 32.31332031 20.04882812 33.66601562 C20.03705959 36.90236328 20.01912463 40.13868745 20 43.375 C15.71 43.375 11.42 43.375 7 43.375 C6.67 42.715 6.34 42.055 6 41.375 C5.030625 41.87 4.06125 42.365 3.0625 42.875 C-2.49328954 45.23677288 -7.66072399 45.21360838 -13.3125 43.1875 C-16.48637864 41.04697719 -18.16070787 39.77061625 -20 36.375 C-20.60856389 32.59849136 -20.66352932 29.14634185 -20 25.375 C-17.47511054 21.9383449 -14.94578461 19.90009767 -11 18.375 C-8.08985423 17.99284839 -5.18132797 17.86666977 -2.25 17.75 C-1.45722656 17.71132812 -0.66445313 17.67265625 0.15234375 17.6328125 C2.10119416 17.538892 4.05056451 17.45587178 6 17.375 C4.6910428 14.25302522 4.6910428 14.25302522 2 12.375 C-3.42934261 12.04923944 -7.82489117 12.92233787 -13 14.375 C-15.81645906 11.19117671 -16.72317437 8.61965971 -17 4.375 C-12.39345475 -0.23154525 -6.12300361 0.01010397 0 0 Z M-5.84375 26.71875 C-7.29700935 28.41034718 -7.29700935 28.41034718 -6.6875 31.0625 C-6.460625 31.825625 -6.23375 32.58875 -6 33.375 C-2.36257951 34.30550292 -0.62301488 34.67958505 2.8125 33 C4.86806083 31.55559279 4.86806083 31.55559279 6 30.375 C6.04063832 28.70882885 6.042721 27.04111905 6 25.375 C4.39667209 25.29378076 2.79215974 25.23570866 1.1875 25.1875 C0.29417969 25.15269531 -0.59914063 25.11789063 -1.51953125 25.08203125 C-4.04120125 25.17441471 -4.04120125 25.17441471 -5.84375 26.71875 Z " fill="#747373" transform="translate(391,204.625)"/>
<path d="M0 0 C1.18505859 1.48364258 1.18505859 1.48364258 2.1484375 3.39453125 C2.51138916 4.09755371 2.87434082 4.80057617 3.24829102 5.52490234 C3.80601196 6.65726318 3.80601196 6.65726318 4.375 7.8125 C4.76421631 8.57771973 5.15343262 9.34293945 5.55444336 10.13134766 C6.34117045 11.68208751 7.12206228 13.2358021 7.89697266 14.79248047 C8.88484601 16.76953909 9.89435331 18.7326896 10.91796875 20.69140625 C15 28.59367577 15 28.59367577 15 32 C13.27473958 32.65104167 11.54947917 33.30208333 9.82421875 33.953125 C7.48755366 35.13434655 7.48755366 35.13434655 5 39 C2.03 33.555 2.03 33.555 -1 28 C-1.33 37.24 -1.66 46.48 -2 56 C-6.29 56 -10.58 56 -15 56 C-16.27469407 53.45061185 -16.12016184 51.66959002 -16.11352539 48.81591797 C-16.11344986 47.73494843 -16.11337433 46.65397888 -16.11329651 45.54025269 C-16.10813522 44.36939117 -16.10297394 43.19852966 -16.09765625 41.9921875 C-16.0962413 40.79643097 -16.09482635 39.60067444 -16.09336853 38.36868286 C-16.08775663 34.53743013 -16.07520208 30.70623516 -16.0625 26.875 C-16.05748653 24.28255293 -16.05292336 21.69010494 -16.04882812 19.09765625 C-16.03778333 12.73175102 -16.02103359 6.36587963 -16 0 C-14.08416353 -0.1958009 -12.16727461 -0.38132214 -10.25 -0.5625 C-8.64898437 -0.71912109 -8.64898437 -0.71912109 -7.015625 -0.87890625 C-4.34262079 -0.98624191 -2.48969892 -0.91704489 0 0 Z " fill="#6D6D6D" transform="translate(213,192)"/>
<path d="M0 0 C3.17314856 2.03584185 4.84182262 4.13204613 6.97265625 7.265625 C7.57078125 8.11125 8.16890625 8.956875 8.78515625 9.828125 C10.86527591 15.84952402 11.31941337 22.66276194 9.05859375 28.7109375 C5.50905493 34.73370336 0.63712568 39.01784537 -6.02734375 41.265625 C-13.57932807 42.24967144 -19.41336054 40.9237293 -26.02734375 37.265625 C-26.02734375 36.605625 -26.02734375 35.945625 -26.02734375 35.265625 C-26.68734375 35.265625 -27.34734375 35.265625 -28.02734375 35.265625 C-32.2594154 29.84328319 -34.40193052 24.66289808 -33.83984375 17.765625 C-32.81806682 10.85982231 -30.47855521 5.7477322 -25.02734375 1.265625 C-17.00139595 -4.21638399 -8.6330379 -4.32413186 0 0 Z M-22.02734375 10.265625 C-25.13974255 14.93422321 -24.62648583 19.79937814 -24.02734375 25.265625 C-22.54389267 28.39423839 -22.54389267 28.39423839 -20.02734375 30.265625 C-19.30546875 30.884375 -18.58359375 31.503125 -17.83984375 32.140625 C-13.68797042 33.80137433 -10.294927 33.46776113 -6.02734375 32.265625 C-1.84108084 29.82998113 0.21312112 27.59339433 1.59765625 23.015625 C2.47193671 17.78742784 0.93789977 13.58343575 -2.02734375 9.265625 C-5.07938394 6.3454224 -7.2822419 5.83392611 -11.46484375 5.828125 C-16.21614497 5.95482637 -18.76760051 6.58526973 -22.02734375 10.265625 Z " fill="#737272" transform="translate(274.02734375,268.734375)"/>
<path d="M0 0 C0 0.66 0 1.32 0 2 C0.99 2.33 1.98 2.66 3 3 C1.125 7.75 1.125 7.75 0 10 C-2.53385179 9.39187557 -5.0037309 8.69529598 -7.5 7.9375 C-11.04006816 6.82750928 -11.04006816 6.82750928 -15 7 C-15.16687448 9.41645782 -15.16687448 9.41645782 -15 12 C-12.39473112 14.60526888 -9.82060766 15.34134224 -6.375 16.625 C-5.18648437 17.07101562 -3.99796875 17.51703125 -2.7734375 17.9765625 C-1.85820312 18.31429688 -0.94296875 18.65203125 0 19 C0 19.66 0 20.32 0 21 C0.66 21 1.32 21 2 21 C4.83535784 25.25303676 4.76089759 29.00758008 4 34 C2.33450523 37.37916501 0.07751586 39.47920067 -3.34375 41.1328125 C-9.354236 43.0950594 -15.80855318 42.91697535 -21.5625 40.25 C-24.58258556 38.66775143 -25.67785118 37.1310589 -27 34 C-25.02 31.525 -25.02 31.525 -23 29 C-20.4988252 29.44663836 -19.17243054 29.84604416 -17.25 31.5625 C-13.80225581 33.76522545 -11.04441751 33.26520771 -7 33 C-5.70366379 31.93354885 -5.70366379 31.93354885 -5.9375 29.4375 C-5.958125 28.633125 -5.97875 27.82875 -6 27 C-6.95261719 26.63648438 -7.90523437 26.27296875 -8.88671875 25.8984375 C-22.10263665 20.68328965 -22.10263665 20.68328965 -25 15 C-25.81083999 11.12055005 -25.90239502 7.73480839 -24.04296875 4.16015625 C-17.9931386 -3.69502004 -8.55823365 -3.51107022 0 0 Z " fill="#747374" transform="translate(226,268)"/>
<path d="M0 0 C4.64763458 1.63295269 4.64763458 1.63295269 6.5 3.5625 C8.50706089 5.48593335 10.29667526 5.63468585 13 6 C12.45276317 9.37462715 11.9451 11.08235 10 14 C7.525 13.505 7.525 13.505 5 13 C4.96241577 14.76428345 4.96241577 14.76428345 4.92407227 16.56420898 C4.83017194 20.91214622 4.72990952 25.25991716 4.62768555 29.60766602 C4.58427067 31.49239218 4.54260057 33.37715936 4.50268555 35.26196289 C4.44514107 37.96513249 4.38140196 40.66809436 4.31640625 43.37109375 C4.29133751 44.64296791 4.29133751 44.64296791 4.26576233 45.9405365 C4.11387171 51.88612829 4.11387171 51.88612829 3 53 C1.28134591 53.0935919 -0.44115744 53.11744611 -2.16235352 53.11352539 C-3.26341934 53.11344986 -4.36448517 53.11337433 -5.49891663 53.11329651 C-6.6968132 53.10813522 -7.89470978 53.10297394 -9.12890625 53.09765625 C-10.34827377 53.0962413 -11.5676413 53.09482635 -12.82395935 53.09336853 C-16.7368307 53.08774967 -20.64964581 53.07519396 -24.5625 53.0625 C-27.20768147 53.05748743 -29.85286383 53.0529241 -32.49804688 53.04882812 C-38.99871726 53.03777411 -45.49935461 53.02101764 -52 53 C-52.84945389 49.06548889 -53.05087592 45.6372021 -52.87890625 41.60546875 C-52.80639648 39.80239258 -52.80639648 39.80239258 -52.73242188 37.96289062 C-52.67634766 36.71701172 -52.62027344 35.47113281 -52.5625 34.1875 C-52.51029297 32.92228516 -52.45808594 31.65707031 -52.40429688 30.35351562 C-52.27486616 27.23541194 -52.13990871 24.11764822 -52 21 C-51.67 21 -51.34 21 -51 21 C-50.67 29.25 -50.34 37.5 -50 46 C-49.34 46.33 -48.68 46.66 -48 47 C-48 33.14 -48 19.28 -48 5 C-47.67 5 -47.34 5 -47 5 C-47 18.86 -47 32.72 -47 47 C-24.725 46.505 -24.725 46.505 -2 46 C-2.07917319 31.60954435 -2.07917319 31.60954435 -2.18017578 17.21923828 C-2.18601518 15.41959875 -2.19111204 13.6199566 -2.1953125 11.8203125 C-2.20554443 10.88050537 -2.21577637 9.94069824 -2.22631836 8.97241211 C-2.22656006 8.0793335 -2.22680176 7.18625488 -2.22705078 6.26611328 C-2.231492 5.48889923 -2.23593323 4.71168518 -2.24050903 3.91091919 C-2 2 -2 2 0 0 Z " fill="#7A7879" transform="translate(155,235)"/>
<path d="M0 0 C9.9 0 19.8 0 30 0 C30 2.31 30 4.62 30 7 C29 8 29 8 27.05053711 8.11352539 C26.2178833 8.10828857 25.38522949 8.10305176 24.52734375 8.09765625 C23.62822266 8.09443359 22.72910156 8.09121094 21.80273438 8.08789062 C20.85720703 8.07951172 19.91167969 8.07113281 18.9375 8.0625 C17.98810547 8.05798828 17.03871094 8.05347656 16.06054688 8.04882812 C13.70700469 8.03700128 11.35349468 8.01906521 9 8 C9 11.3 9 14.6 9 18 C14.94 18 20.88 18 27 18 C27 20.64 27 23.28 27 26 C21.06 26 15.12 26 9 26 C9 31.28 9 36.56 9 42 C2 43 2 43 0 42 C0 28.14 0 14.28 0 0 Z " fill="#767575" transform="translate(297,267)"/>
<path d="M0 0 C-0.33 0.99 -0.66 1.98 -1 3 C-2.98 3 -4.96 3 -7 3 C-7 3.66 -7 4.32 -7 5 C-4.525 5.495 -4.525 5.495 -2 6 C-2.99 6.66 -3.98 7.32 -5 8 C-10.29711629 12.36436321 -15.21736716 17.08285561 -20 22 C-18.31847927 25.74020498 -16.30960527 27.56134348 -13 30 C-11.02 28.02 -9.04 26.04 -7 24 C-3.125 25.875 -3.125 25.875 -2 27 C-1.90731001 28.35094982 -1.88252674 29.70667091 -1.88647461 31.06079102 C-1.88655014 31.92160782 -1.88662567 32.78242462 -1.88670349 33.66932678 C-1.89186478 34.60473801 -1.89702606 35.54014923 -1.90234375 36.50390625 C-1.9037587 37.45692123 -1.90517365 38.40993622 -1.90663147 39.39183044 C-1.91224848 42.44875165 -1.92480384 45.50560077 -1.9375 48.5625 C-1.94251281 50.62955624 -1.94707609 52.69661362 -1.95117188 54.76367188 C-1.96222344 59.84247588 -1.97949945 64.9212257 -2 70 C0.31 70 2.62 70 5 70 C5 70.33 5 70.66 5 71 C3.18757948 71.02687279 1.37504767 71.04633715 -0.4375 71.0625 C-1.44683594 71.07410156 -2.45617187 71.08570313 -3.49609375 71.09765625 C-6 71 -6 71 -7 70 C-7.99 70.99 -7.99 70.99 -9 72 C-9.33 60.45 -9.66 48.9 -10 37 C-11.65 37.66 -13.3 38.32 -15 39 C-17.32503934 36.93031698 -19.63261727 34.84208986 -21.9375 32.75 C-22.59685547 32.16347656 -23.25621094 31.57695312 -23.93554688 30.97265625 C-24.56396484 30.39902344 -25.19238281 29.82539063 -25.83984375 29.234375 C-26.42113037 28.71069336 -27.00241699 28.18701172 -27.60131836 27.64746094 C-29.21083946 25.75165916 -29.69356797 24.45519698 -30 22 C-29.67 21.34 -29.34 20.68 -29 20 C-28.34 20 -27.68 20 -27 20 C-27 19.34 -27 18.68 -27 18 C-26.34 18 -25.68 18 -25 18 C-24.731875 17.360625 -24.46375 16.72125 -24.1875 16.0625 C-23 14 -23 14 -20 13 C-20 12.34 -20 11.68 -20 11 C-19.34 11 -18.68 11 -18 11 C-17.75121094 10.40574219 -17.50242187 9.81148437 -17.24609375 9.19921875 C-15.81934287 6.68115999 -14.39572921 5.50267908 -12.0625 3.8125 C-11.37285156 3.30332031 -10.68320313 2.79414063 -9.97265625 2.26953125 C-6.61294999 0.10734405 -3.8959971 -0.10529722 0 0 Z " fill="#979797" transform="translate(111,211)"/>
<path d="M0 0 C10.89 0 21.78 0 33 0 C33 2.64 33 5.28 33 8 C29.04 8 25.08 8 21 8 C21.00785522 9.53708618 21.00785522 9.53708618 21.01586914 11.10522461 C21.03391969 14.89395276 21.0454322 18.68267709 21.05493164 22.47143555 C21.05997174 24.11369464 21.06680378 25.75594923 21.07543945 27.39819336 C21.08751926 29.75375479 21.09323139 32.10925709 21.09765625 34.46484375 C21.10281754 35.20339096 21.10797882 35.94193817 21.11329651 36.7028656 C21.1134925 38.46898088 21.06194719 40.23497146 21 42 C20 43 20 43 16.4375 43.0625 C15.303125 43.041875 14.16875 43.02125 13 43 C12.19199837 35.09312688 11.89212601 27.25611404 11.875 19.3125 C11.87048828 18.42723633 11.86597656 17.54197266 11.86132812 16.62988281 C11.86326172 15.7994043 11.86519531 14.96892578 11.8671875 14.11328125 C11.86831543 13.36860596 11.86944336 12.62393066 11.87060547 11.85668945 C12 10 12 10 13 8 C12.14535156 8.01160156 11.29070312 8.02320313 10.41015625 8.03515625 C9.30542969 8.04417969 8.20070313 8.05320312 7.0625 8.0625 C5.96035156 8.07410156 4.85820312 8.08570313 3.72265625 8.09765625 C1 8 1 8 0 7 C0 4.69 0 2.38 0 0 Z " fill="#727273" transform="translate(334,267)"/>
<path d="M0 0 C1.0625 1.875 1.0625 1.875 2 4 C1.67 4.66 1.34 5.32 1 6 C0.34 6 -0.32 6 -1 6 C-0.855625 6.515625 -0.71125 7.03125 -0.5625 7.5625 C0.15809901 10.68509571 0.57266439 13.82550692 1 17 C0.34 17 -0.32 17 -1 17 C-1 15.35 -1 13.7 -1 12 C-2.62580966 12.11398665 -4.25067157 12.24155659 -5.875 12.375 C-6.77992188 12.44460937 -7.68484375 12.51421875 -8.6171875 12.5859375 C-11.17941903 12.79568132 -11.17941903 12.79568132 -13 15 C-13 16.32 -13 17.64 -13 19 C-10.36 19.66 -7.72 20.32 -5 21 C-5.33 21.66 -5.66 22.32 -6 23 C-6.66 23 -7.32 23 -8 23 C-8 23.66 -8 24.32 -8 25 C-7.34 25 -6.68 25 -6 25 C-6.63671875 26.9375 -6.63671875 26.9375 -8 29 C-11.96196373 30.1236293 -15.89945136 30.2408867 -20 30 C-23.56798639 28.00192762 -24.7433505 26.38497425 -27 23 C-27.78613611 17.65427448 -28.00564773 13.3687983 -24.75 8.9375 C-20.95927677 6.26676318 -18.35907685 4.73772747 -13.671875 4.8046875 C-12.47304688 4.81435547 -12.47304688 4.81435547 -11.25 4.82421875 C-10.425 4.84097656 -9.6 4.85773438 -8.75 4.875 C-7.90953125 4.88402344 -7.0690625 4.89304688 -6.203125 4.90234375 C-4.13529396 4.92584183 -2.06761005 4.96171092 0 5 C0 3.35 0 1.7 0 0 Z " fill="#6D6D6C" transform="translate(398,218)"/>
<path d="M0 0 C7.52311338 -0.44471606 12.89860922 -0.70315539 19 4 C23.48941994 8.73883216 26.15184674 13.42997502 26.4375 20 C26.28214466 24.68184498 25.3020149 27.51949781 22 31 C19.375 31.75 19.375 31.75 17 32 C16.34 32.66 15.68 33.32 15 34 C14.34 34 13.68 34 13 34 C13.55146408 31.2426796 14.34777426 29.34309307 15.6875 26.8125 C17.36798847 22.96310522 16.96729277 20.0758296 15.87109375 16.0859375 C14.55219709 12.92768272 12.66939939 11.08343367 10 9 C6.99221479 7.99740493 4.46179353 7.69685358 1.3125 7.4375 C0.31863281 7.35371094 -0.67523438 7.26992188 -1.69921875 7.18359375 C-2.83810547 7.09271484 -2.83810547 7.09271484 -4 7 C-3.34 5.35 -2.68 3.7 -2 2 C-1.34 2 -0.68 2 0 2 C0 1.34 0 0.68 0 0 Z " fill="#6D6B6C" transform="translate(258,267)"/>
<path d="M0 0 C1.21816406 0.03480469 1.21816406 0.03480469 2.4609375 0.0703125 C3.68683594 0.09738281 3.68683594 0.09738281 4.9375 0.125 C5.87722656 0.15980469 5.87722656 0.15980469 6.8359375 0.1953125 C7.00609375 0.83339844 7.17625 1.47148437 7.3515625 2.12890625 C7.59390625 2.95519531 7.83625 3.78148437 8.0859375 4.6328125 C8.31796875 5.45652344 8.55 6.28023437 8.7890625 7.12890625 C9.63283639 9.35242127 9.63283639 9.35242127 11.7265625 9.97265625 C16.0588547 10.42995376 20.74261381 10.87831129 24.8359375 9.1953125 C25.9734588 7.11496956 25.9734588 7.11496956 26.5859375 4.6328125 C26.82828125 3.80652344 27.070625 2.98023438 27.3203125 2.12890625 C27.49046875 1.49082031 27.660625 0.85273438 27.8359375 0.1953125 C32.35211349 0.11876714 36.42678967 0.09302554 40.8359375 1.1953125 C39.8359375 3.1953125 39.8359375 3.1953125 37.8359375 5.1953125 C34.2109375 5.3203125 34.2109375 5.3203125 30.8359375 5.1953125 C30.8359375 6.5153125 30.8359375 7.8353125 30.8359375 9.1953125 C29.3984375 10.7578125 29.3984375 10.7578125 27.8359375 12.1953125 C27.5059375 13.1853125 27.1759375 14.1753125 26.8359375 15.1953125 C21.94920469 18.45313438 16.54754248 17.7580322 10.8359375 17.1953125 C6.66945925 15.29481365 5.28317877 14.04010156 3.1484375 10.0078125 C1.13598772 6.97335955 1.13598772 6.97335955 -1.85546875 6.58984375 C-4.63526961 6.34488046 -7.37411876 6.204933 -10.1640625 6.1953125 C-9.8340625 5.2053125 -9.5040625 4.2153125 -9.1640625 3.1953125 C-8.3803125 3.0715625 -7.5965625 2.9478125 -6.7890625 2.8203125 C-3.79381095 2.10715737 -2.97982563 0.26893733 0 0 Z " fill="#888688" transform="translate(113.1640625,210.8046875)"/>
<path d="M0 0 C0.6875 1.8125 0.6875 1.8125 1 4 C0.525625 4.4434375 0.05125 4.886875 -0.4375 5.34375 C-2.44188053 7.46839337 -2.47909349 8.81149022 -2.6875 11.6875 C-2.75324219 12.49574219 -2.81898438 13.30398437 -2.88671875 14.13671875 C-2.92410156 14.75160156 -2.96148437 15.36648437 -3 16 C-8.20356113 17.73452038 -13.4512802 17.98378305 -18.62109375 15.98828125 C-24.76102464 12.71692607 -24.76102464 12.71692607 -26 9 C-25.34 9 -24.68 9 -24 9 C-24 9.66 -24 10.32 -24 11 C-21.52733235 10.65555119 -21.52733235 10.65555119 -19 10 C-18.67 9.34 -18.34 8.68 -18 8 C-17.34 8.66 -16.68 9.32 -16 10 C-15.67 9.01 -15.34 8.02 -15 7 C-13.8553125 6.7834375 -13.8553125 6.7834375 -12.6875 6.5625 C-7.51148006 5.47914699 -2.99269777 4.48904665 0 0 Z " fill="#6F6E6E" transform="translate(349,232)"/>
<path d="M0 0 C-0.33 0.99 -0.66 1.98 -1 3 C-2.98 3 -4.96 3 -7 3 C-7 3.66 -7 4.32 -7 5 C-4.525 5.495 -4.525 5.495 -2 6 C-2.99 6.66 -3.98 7.32 -5 8 C-6.28495955 9.08769497 -7.55464067 10.19357583 -8.8125 11.3125 C-12.16061348 14.27072227 -15.5538129 17.15689564 -19 20 C-20.02104551 19.02149805 -21.0206121 18.02019573 -22 17 C-22 16.67 -22 16.34 -22 16 C-22.66 15.67 -23.32 15.34 -24 15 C-22.68 14.34 -21.36 13.68 -20 13 C-20 12.34 -20 11.68 -20 11 C-19.34 11 -18.68 11 -18 11 C-17.75121094 10.40574219 -17.50242187 9.81148437 -17.24609375 9.19921875 C-15.81934287 6.68115999 -14.39572921 5.50267908 -12.0625 3.8125 C-11.02802734 3.04873047 -11.02802734 3.04873047 -9.97265625 2.26953125 C-6.61294999 0.10734405 -3.8959971 -0.10529722 0 0 Z " fill="#969597" transform="translate(111,211)"/>
<path d="M0 0 C9.24 0 18.48 0 28 0 C28.33 0.66 28.66 1.32 29 2 C27.51886719 1.96519531 27.51886719 1.96519531 26.0078125 1.9296875 C24.08582031 1.90261719 24.08582031 1.90261719 22.125 1.875 C20.84882813 1.85179687 19.57265625 1.82859375 18.2578125 1.8046875 C14.91406662 1.64358476 14.91406662 1.64358476 13 4 C13.32041397 6.60280568 13.32041397 6.60280568 14 9 C11.8537974 8.85970581 9.70803782 8.71261836 7.5625 8.5625 C6.36753906 8.48128906 5.17257812 8.40007812 3.94140625 8.31640625 C1 8 1 8 0 7 C0 4.69 0 2.38 0 0 Z " fill="#686869" transform="translate(334,267)"/>
<path d="M0 0 C0.66 0.33 1.32 0.66 2 1 C1.67 1.66 1.34 2.32 1 3 C1.66 3.33 2.32 3.66 3 4 C2.566875 5.0209375 2.566875 5.0209375 2.125 6.0625 C1.97318794 9.63008342 2.6621405 10.1907743 4.9375 12.8125 C5.94440237 13.88821119 6.96114056 14.95511819 8 16 C4.94152152 16.54372951 2.11227195 17 -1 17 C-2.859375 15.390625 -2.859375 15.390625 -4.75 13.25 C-5.38421875 12.55390625 -6.0184375 11.8578125 -6.671875 11.140625 C-8 9 -8 9 -7.703125 6.734375 C-7.47109375 6.16203125 -7.2390625 5.5896875 -7 5 C-6.34 5 -5.68 5 -5 5 C-5 4.34 -5 3.68 -5 3 C-4.34 3 -3.68 3 -3 3 C-3 2.34 -3 1.68 -3 1 C-2.01 0.67 -1.02 0.34 0 0 Z " fill="#8C898C" transform="translate(89,226)"/>
<path d="M0 0 C1.77074917 -0.02705729 3.54161711 -0.04642195 5.3125 -0.0625 C6.29863281 -0.07410156 7.28476563 -0.08570313 8.30078125 -0.09765625 C11 0 11 0 14 1 C14 1.66 14 2.32 14 3 C14.99 3.33 15.98 3.66 17 4 C15.125 8.75 15.125 8.75 14 11 C10.73479256 10.19924675 7.49253933 9.32533815 4.25 8.4375 C3.26515625 8.16808594 2.2803125 7.89867187 1.265625 7.62109375 C0.51796875 7.41613281 -0.2296875 7.21117187 -1 7 C-0.67 4.69 -0.34 2.38 0 0 Z " fill="#6F6D6E" transform="translate(212,267)"/>
<path d="M0 0 C3.96 0 7.92 0 12 0 C12 0.66 12 1.32 12 2 C12.66 2 13.32 2 14 2 C16 5 16 5 15.625 7.1875 C15.315625 8.0846875 15.315625 8.0846875 15 9 C13.906875 8.855625 12.81375 8.71125 11.6875 8.5625 C6.470742 7.90689307 1.23765253 7.45251777 -4 7 C-3.34 5.35 -2.68 3.7 -2 2 C-1.34 2 -0.68 2 0 2 C0 1.34 0 0.68 0 0 Z " fill="#656364" transform="translate(258,267)"/>
<path d="M0 0 C1 3 1 3 0.21484375 4.8671875 C-3.7541077 11.10584514 -7.75536279 15.63095075 -15 18 C-17.89453125 18.1953125 -17.89453125 18.1953125 -20.8125 18.125 C-22.27623047 18.09792969 -22.27623047 18.09792969 -23.76953125 18.0703125 C-24.50558594 18.04710937 -25.24164063 18.02390625 -26 18 C-26 17.67 -26 17.34 -26 17 C-22.7 16.34 -19.4 15.68 -16 15 C-16 14.01 -16 13.02 -16 12 C-18.31 11.67 -20.62 11.34 -23 11 C-23 10.67 -23 10.34 -23 10 C-21.23050388 9.49528803 -19.45934777 8.99639315 -17.6875 8.5 C-16.70136719 8.2215625 -15.71523438 7.943125 -14.69921875 7.65625 C-12 7 -12 7 -9 7 C-5.14309946 6.11612696 -3.46115822 5.6456215 -1.125 2.375 C-0.75375 1.59125 -0.3825 0.8075 0 0 Z " fill="#757475" transform="translate(283,292)"/>
<path d="M0 0 C2.47724402 0.442365 3.88679545 0.90943636 5.875 2.5 C8.53604574 4.37838523 10.79984114 4.63634558 14 5 C12.02 5.99 12.02 5.99 10 7 C10.99 8.32 11.98 9.64 13 11 C11.35 11 9.7 11 8 11 C10.97 11.33 13.94 11.66 17 12 C17 12.33 17 12.66 17 13 C10.02955462 13.46127947 3.66983054 13.60407292 -2 9 C-3.21484375 6.859375 -3.21484375 6.859375 -4 5 C-2.68 3.35 -1.36 1.7 0 0 Z " fill="#7F7F81" transform="translate(203,297)"/>
<path d="M0 0 C0.99 0.33 1.98 0.66 3 1 C2.01 3.31 1.02 5.62 0 8 C-1.65 7.67 -3.3 7.34 -5 7 C-5.33 19.87 -5.66 32.74 -6 46 C-6.99 45.67 -7.98 45.34 -9 45 C-8.88193803 39.33985838 -8.75770328 33.67989917 -8.62768555 28.02001953 C-8.58430999 26.09362496 -8.54263686 24.16719129 -8.50268555 22.24072266 C-8.44504638 19.47546592 -8.38133384 16.7104065 -8.31640625 13.9453125 C-8.29969376 13.0806839 -8.28298126 12.2160553 -8.26576233 11.32522583 C-8.11387171 5.22774341 -8.11387171 5.22774341 -7 3 C-4.67843403 2.59270772 -2.3431213 2.25561323 0 2 C0 1.34 0 0.68 0 0 Z " fill="#777676" transform="translate(165,241)"/>
<path d="M0 0 C0.66 0 1.32 0 2 0 C2.33 18.15 2.66 36.3 3 55 C2.01 54.67 1.02 54.34 0 54 C0 36.18 0 18.36 0 0 Z " fill="#A9A8A9" transform="translate(197,192)"/>
<path d="M0 0 C0.66 0 1.32 0 2 0 C2 2.31 2 4.62 2 7 C-1.63 7 -5.26 7 -9 7 C-9 18.22 -9 29.44 -9 41 C-10.98 41 -12.96 41 -15 41 C-13.02 40.505 -13.02 40.505 -11 40 C-11.00523682 38.97527588 -11.01047363 37.95055176 -11.01586914 36.89477539 C-11.03391969 33.10604724 -11.0454322 29.31732291 -11.05493164 25.52856445 C-11.05997174 23.88630536 -11.06680378 22.24405077 -11.07543945 20.60180664 C-11.08751926 18.24624521 -11.09323139 15.89074291 -11.09765625 13.53515625 C-11.10281754 12.79660904 -11.10797882 12.05806183 -11.11329651 11.2971344 C-11.1134925 9.53101912 -11.06194719 7.76502854 -11 6 C-10 5 -10 5 -7.49609375 4.90234375 C-5.98208984 4.91974609 -5.98208984 4.91974609 -4.4375 4.9375 C-3.42558594 4.94652344 -2.41367187 4.95554687 -1.37109375 4.96484375 C-0.19740234 4.98224609 -0.19740234 4.98224609 1 5 C0.67 3.35 0.34 1.7 0 0 Z " fill="#646363" transform="translate(364,268)"/>
<path d="M0 0 C4.3488459 0.50178991 6.89443878 3.09697538 10 6 C11.70942896 8.45265894 12.1165767 9.30053979 11.625 12.25 C11.41875 12.8275 11.2125 13.405 11 14 C10.34 14 9.68 14 9 14 C8.67 14.66 8.34 15.32 8 16 C7.34 16 6.68 16 6 16 C5.67 16.99 5.34 17.98 5 19 C4.73445313 18.37351562 4.46890625 17.74703125 4.1953125 17.1015625 C3.84210938 16.28429687 3.48890625 15.46703125 3.125 14.625 C2.77695312 13.81289063 2.42890625 13.00078125 2.0703125 12.1640625 C1.07553933 9.86197701 1.07553933 9.86197701 -1 8 C0.32 7.67 1.64 7.34 3 7 C2.65772428 4.02934491 2.65772428 4.02934491 2 1 C1.34 0.67 0.68 0.34 0 0 Z " fill="#6E6C6D" transform="translate(270,268)"/>
<path d="M0 0 C6.17764408 0.27456196 10.17789247 1.02176128 15 5 C15.33 5.66 15.66 6.32 16 7 C7.92631579 9.46315789 7.92631579 9.46315789 3 7 C1.0075675 6.62406934 -0.9918674 6.28020455 -3 6 C-3.061875 6.556875 -3.12375 7.11375 -3.1875 7.6875 C-4.33373872 10.94987173 -6.49390197 12.68667874 -9 15 C-8.67 13.35 -8.34 11.7 -8 10 C-7.01 9.67 -6.02 9.34 -5 9 C-5 7.68 -5 6.36 -5 5 C-2.69 5 -0.38 5 2 5 C2.33 4.01 2.66 3.02 3 2 C3.66 1.67 4.32 1.34 5 1 C3.35 1 1.7 1 0 1 C0 0.67 0 0.34 0 0 Z " fill="#8F8E90" transform="translate(149,211)"/>
<path d="M0 0 C5.61 0 11.22 0 17 0 C17 1.98 17 3.96 17 6 C11.39 6 5.78 6 0 6 C0.66 4.68 1.32 3.36 2 2 C1.34 1.34 0.68 0.68 0 0 Z " fill="#636263" transform="translate(306,286)"/>
<path d="M0 0 C0.87785156 0.15984375 1.75570313 0.3196875 2.66015625 0.484375 C4.9375 1.25 4.9375 1.25 6.9375 4.25 C6.6075 4.91 6.2775 5.57 5.9375 6.25 C0.83292395 7.79684123 -5.02196458 7.93017847 -10.0625 6.25 C-9.25 3.3125 -9.25 3.3125 -8.0625 0.25 C-4.76342122 -0.84969293 -3.35343739 -0.65192008 0 0 Z " fill="#6E6D6E" transform="translate(262.0625,301.75)"/>
<path d="M0 0 C0.91007812 0.00902344 1.82015625 0.01804687 2.7578125 0.02734375 C3.80582031 0.04474609 3.80582031 0.04474609 4.875 0.0625 C4.875 0.3925 4.875 0.7225 4.875 1.0625 C1.905 1.0625 -1.065 1.0625 -4.125 1.0625 C-4.125 1.7225 -4.125 2.3825 -4.125 3.0625 C-5.10350195 4.08354551 -6.10480427 5.0831121 -7.125 6.0625 C-7.455 6.7225 -7.785 7.3825 -8.125 8.0625 C-4.495 8.0625 -0.865 8.0625 2.875 8.0625 C2.875 8.3925 2.875 8.7225 2.875 9.0625 C1.080625 9.1553125 1.080625 9.1553125 -0.75 9.25 C-5.53230383 9.81162287 -7.73007231 11.75244551 -11.125 15.0625 C-11.104375 14.299375 -11.08375 13.53625 -11.0625 12.75 C-10.99557159 9.96064214 -10.99557159 9.96064214 -12.125 7.0625 C-13.445 7.3925 -14.765 7.7225 -16.125 8.0625 C-16.125 7.4025 -16.125 6.7425 -16.125 6.0625 C-14.66695831 5.24947675 -13.20855685 4.43709869 -11.75 3.625 C-10.53183594 2.94630859 -10.53183594 2.94630859 -9.2890625 2.25390625 C-5.84447891 0.35751997 -3.95041211 -0.05064631 0 0 Z " fill="#8A898A" transform="translate(262.125,265.9375)"/>
<path d="M0 0 C3.49734228 0.38859359 6.65788261 0.88596087 10 2 C10.33 4.31 10.66 6.62 11 9 C8.69 9 6.38 9 4 9 C4.33 8.34 4.66 7.68 5 7 C3.68 6.67 2.36 6.34 1 6 C1 6.66 1 7.32 1 8 C0.01 8 -0.98 8 -2 8 C-1.125 1.125 -1.125 1.125 0 0 Z " fill="#767677" transform="translate(212,283)"/>
<path d="M0 0 C0 0.66 0 1.32 0 2 C-1.32 2 -2.64 2 -4 2 C-4 2.66 -4 3.32 -4 4 C-3.01 4.66 -2.02 5.32 -1 6 C-11.56 6 -22.12 6 -33 6 C-33 5.01 -33 4.02 -33 3 C-32.34 3.33 -31.68 3.66 -31 4 C-29.55151418 4.08342159 -28.09929131 4.10732861 -26.6484375 4.09765625 C-25.37226562 4.09282227 -25.37226562 4.09282227 -24.0703125 4.08789062 C-23.18085937 4.07951172 -22.29140625 4.07113281 -21.375 4.0625 C-20.02921875 4.05573242 -20.02921875 4.05573242 -18.65625 4.04882812 C-16.43743352 4.03702591 -14.21874982 4.02056155 -12 4 C-12 3.34 -12 2.68 -12 2 C-8.09971775 -0.60018816 -4.52565431 -0.15085514 0 0 Z " fill="#908F90" transform="translate(136,282)"/>
<path d="M0 0 C0.66 0.33 1.32 0.66 2 1 C2 1.99 2 2.98 2 4 C1.01 4.33 0.02 4.66 -1 5 C-2.60769874 7.33116317 -3.09530596 8.42816426 -2.625 11.25 C-2.41875 11.8275 -2.2125 12.405 -2 13 C-3.32 13.99 -4.64 14.98 -6 16 C-7.02104551 15.02149805 -8.0206121 14.02019573 -9 13 C-9 12.67 -9 12.34 -9 12 C-9.66 11.67 -10.32 11.34 -11 11 C-9.68 10.34 -8.36 9.68 -7 9 C-7 8.34 -7 7.68 -7 7 C-6.34 7 -5.68 7 -5 7 C-4.731875 6.401875 -4.46375 5.80375 -4.1875 5.1875 C-3.01506533 3.02775192 -1.80630718 1.64209744 0 0 Z " fill="#9A9899" transform="translate(98,215)"/>
<path d="M0 0 C0 0.66 0 1.32 0 2 C0.66 2 1.32 2 2 2 C4 5 4 5 3.625 7.1875 C3.41875 7.785625 3.2125 8.38375 3 9 C0.36 8.67 -2.28 8.34 -5 8 C-4.34 7.67 -3.68 7.34 -3 7 C-3 6.34 -3 5.68 -3 5 C-4.98 4.01 -6.96 3.02 -9 2 C-5.86501708 0.14223235 -3.62528568 -0.20140476 0 0 Z " fill="#737171" transform="translate(270,267)"/>
<path d="M0 0 C0.99 0.33 1.98 0.66 3 1 C3 11.23 3 21.46 3 32 C5.64 32 8.28 32 11 32 C11 32.33 11 32.66 11 33 C8.03 33 5.06 33 2 33 C1.67 23.43 1.34 13.86 1 4 C-0.32 6.31 -1.64 8.62 -3 11 C-4.125 7.25 -4.125 7.25 -3 5 C-2.34 5 -1.68 5 -1 5 C-0.67 3.35 -0.34 1.7 0 0 Z " fill="#A1A0A0" transform="translate(245,215)"/>
<path d="M0 0 C1.0625 1.875 1.0625 1.875 2 4 C1.67 4.66 1.34 5.32 1 6 C0.34 6 -0.32 6 -1 6 C-0.855625 6.515625 -0.71125 7.03125 -0.5625 7.5625 C0.15809901 10.68509571 0.57266439 13.82550692 1 17 C0.34 17 -0.32 17 -1 17 C-1 15.02 -1 13.04 -1 11 C-3.97 11 -6.94 11 -10 11 C-9.01 9.68 -8.02 8.36 -7 7 C-7.33 6.34 -7.66 5.68 -8 5 C-5.36 5 -2.72 5 0 5 C0 3.35 0 1.7 0 0 Z " fill="#636161" transform="translate(398,218)"/>
<path d="M0 0 C2 2 2 2 3 6 C6.3 6 9.6 6 13 6 C13 6.99 13 7.98 13 9 C5.58163669 9.69692348 -0.0744352 8.79174374 -6 4 C-6.33 3.01 -6.66 2.02 -7 1 C-6.34 1 -5.68 1 -5 1 C-5 1.66 -5 2.32 -5 3 C-3.35 2.67 -1.7 2.34 0 2 C0 1.34 0 0.68 0 0 Z " fill="#7C7B7B" transform="translate(330,240)"/>
<path d="M0 0 C-1.04347826 6.26086957 -1.04347826 6.26086957 -3 9 C-5.5 9.625 -5.5 9.625 -8 10 C-8.66 10.66 -9.32 11.32 -10 12 C-10.66 12 -11.32 12 -12 12 C-11.63837434 9.37821395 -11.33034477 8.27135463 -9.25 6.5625 C-8.5075 6.046875 -7.765 5.53125 -7 5 C-6.13375 4.113125 -5.2675 3.22625 -4.375 2.3125 C-2 0 -2 0 0 0 Z " fill="#666566" transform="translate(283,289)"/>
<path d="M0 0 C1.85772162 0.08984301 3.71247985 0.24611861 5.5625 0.4375 C7.08037109 0.59025391 7.08037109 0.59025391 8.62890625 0.74609375 C9.80259766 0.87177734 9.80259766 0.87177734 11 1 C10 3 10 3 8 5 C4.375 5.125 4.375 5.125 1 5 C1 6.32 1 7.64 1 9 C0.01 8.67 -0.98 8.34 -2 8 C-1.125 1.125 -1.125 1.125 0 0 Z " fill="#7C7A7B" transform="translate(143,211)"/>
<path d="M0 0 C0.66 0.33 1.32 0.66 2 1 C2 1.66 2 2.32 2 3 C3.32 3.66 4.64 4.32 6 5 C4.515 7.475 4.515 7.475 3 10 C-0.40320742 8.98823563 -1.75725331 8.35156418 -3.8125 5.375 C-4.4003125 4.199375 -4.4003125 4.199375 -5 3 C-4.360625 2.87625 -3.72125 2.7525 -3.0625 2.625 C-2.0415625 2.315625 -2.0415625 2.315625 -1 2 C-0.67 1.34 -0.34 0.68 0 0 Z " fill="#939091" transform="translate(121,217)"/>
<path d="M0 0 C2.64 0 5.28 0 8 0 C8.33 1.65 8.66 3.3 9 5 C2.73 5 -3.54 5 -10 5 C-10 4.67 -10 4.34 -10 4 C-7.03 4 -4.06 4 -1 4 C-0.67 2.68 -0.34 1.36 0 0 Z " fill="#636161" transform="translate(317,269)"/>
<path d="M0 0 C0.33 0 0.66 0 1 0 C1 2.64 1 5.28 1 8 C0.34 8 -0.32 8 -1 8 C-0.67 8.99 -0.34 9.98 0 11 C-3.04386724 11.08226668 -5.07175348 10.97608217 -8 10 C-8 9.34 -8 8.68 -8 8 C-7.34 8 -6.68 8 -6 8 C-6 6.02 -6 4.04 -6 2 C-5.01 2 -4.02 2 -3 2 C-2.01 3.485 -2.01 3.485 -1 5 C-0.67 3.35 -0.34 1.7 0 0 Z " fill="#616061" transform="translate(228,293)"/>
<path d="M0 0 C2.52622535 3.81430072 2.26230762 7.72316239 2.1875 12.125 C2.18685547 12.85332031 2.18621094 13.58164063 2.18554688 14.33203125 C2.14074248 19.71851504 2.14074248 19.71851504 1 22 C0.34 22 -0.32 22 -1 22 C-1.02726927 19.64575325 -1.04696719 17.29183038 -1.0625 14.9375 C-1.07990234 12.97103516 -1.07990234 12.97103516 -1.09765625 10.96484375 C-1.00452335 7.1836481 -0.61448726 3.72079293 0 0 Z " fill="#797777" transform="translate(259,195)"/>
<path d="M0 0 C1.670625 0.061875 1.670625 0.061875 3.375 0.125 C3.375 0.785 3.375 1.445 3.375 2.125 C2.385 2.455 1.395 2.785 0.375 3.125 C0.375 3.785 0.375 4.445 0.375 5.125 C-3.6777516 6.10748524 -7.46361737 6.20659574 -11.625 6.125 C-11.295 5.135 -10.965 4.145 -10.625 3.125 C-9.84125 3.00125 -9.0575 2.8775 -8.25 2.75 C-4.40173526 1.83374649 -4.26448902 0.14705135 0 0 Z " fill="#7B7A7B" transform="translate(114.625,210.875)"/>
<path d="M0 0 C0.33 0.99 0.66 1.98 1 3 C0.34 3 -0.32 3 -1 3 C-0.2265625 3.61875 -0.2265625 3.61875 0.5625 4.25 C2 6 2 6 2 7.875 C0.53516766 10.98776873 -1.3461673 12.83990361 -4 15 C-6.3125 14.8125 -6.3125 14.8125 -8 14 C-7.01 14 -6.02 14 -5 14 C-4.17361624 11.10765685 -4 9.11257569 -4 6 C-4 5.34 -4 4.68 -4 4 C-3.34 4 -2.68 4 -2 4 C-2 3.34 -2 2.68 -2 2 C-1.34 2 -0.68 2 0 2 C0 1.34 0 0.68 0 0 Z " fill="#9E9D9D" transform="translate(170,235)"/>
<path d="M0 0 C0.99 0 1.98 0 3 0 C3.05789006 3.45826342 3.09355821 6.91640293 3.125 10.375 C3.14175781 11.35984375 3.15851563 12.3446875 3.17578125 13.359375 C3.18222656 14.30039063 3.18867188 15.24140625 3.1953125 16.2109375 C3.20578613 17.08024902 3.21625977 17.94956055 3.22705078 18.84521484 C3 21 3 21 1 23 C-0.23402862 18.22907044 -0.11265112 13.57530554 -0.0625 8.6875 C-0.05798828 7.85154297 -0.05347656 7.01558594 -0.04882812 6.15429688 C-0.03710548 4.10283351 -0.01917203 2.05140727 0 0 Z " fill="#636063" transform="translate(361,190)"/>
<path d="M0 0 C-0.33 4.62 -0.66 9.24 -1 14 C-1.33 14 -1.66 14 -2 14 C-2.33 12.02 -2.66 10.04 -3 8 C-3.66 8 -4.32 8 -5 8 C-5.66 6.35 -6.32 4.7 -7 3 C-4.49955934 -0.00052879 -4.2621484 0 0 0 Z " fill="#747272" transform="translate(251,278)"/>
<path d="M0 0 C1.25050287 2.50100574 1.02993449 4.00343052 0.87890625 6.7890625 C0.83056641 7.73007813 0.78222656 8.67109375 0.73242188 9.640625 C0.67634766 10.62546875 0.62027344 11.6103125 0.5625 12.625 C0.51029297 13.61757812 0.45808594 14.61015625 0.40429688 15.6328125 C0.27441051 18.08884568 0.13943836 20.5444936 0 23 C-0.94101562 22.36578125 -1.88203125 21.7315625 -2.8515625 21.078125 C-5.21454673 19.51843814 -7.44129722 18.18093974 -10 17 C-7.42143135 16.07908262 -6.4056713 15.81493098 -3.859375 16.9765625 C-3.24578125 17.31429687 -2.6321875 17.65203125 -2 18 C-1.93941406 16.78441406 -1.87882812 15.56882813 -1.81640625 14.31640625 C-1.73201668 12.73175772 -1.6473679 11.14712298 -1.5625 9.5625 C-1.52318359 8.76005859 -1.48386719 7.95761719 -1.44335938 7.13085938 C-1.11328125 1.11328125 -1.11328125 1.11328125 0 0 Z " fill="#8F8D8D" transform="translate(351,189)"/>
<path d="M0 0 C3.98671063 1.36687222 6.88494633 3.15195093 10 6 C10 6.66 10 7.32 10 8 C7.69 8.33 5.38 8.66 3 9 C3.33 7.68 3.66 6.36 4 5 C2.68 5.33 1.36 5.66 0 6 C-0.38218767 4.34385343 -0.71395102 2.67542976 -1 1 C-0.67 0.67 -0.34 0.34 0 0 Z " fill="#949394" transform="translate(155,235)"/>
<path d="M0 0 C2.875 -0.1875 2.875 -0.1875 6 0 C6.66 0.99 7.32 1.98 8 3 C7.67 3.66 7.34 4.32 7 5 C4.49609375 5.4140625 4.49609375 5.4140625 1.4375 5.625 C0.42558594 5.69976562 -0.58632813 5.77453125 -1.62890625 5.8515625 C-2.41136719 5.90054687 -3.19382812 5.94953125 -4 6 C-3.525625 5.566875 -3.05125 5.13375 -2.5625 4.6875 C-0.76313043 2.97690387 -0.76313043 2.97690387 0 0 Z " fill="#696869" transform="translate(261,303)"/>
<path d="M0 0 C0.66 0.33 1.32 0.66 2 1 C2 1.99 2 2.98 2 4 C-3.5522888 6.8352113 -7.80112515 7.37952295 -14 7 C-14 6.34 -14 5.68 -14 5 C-13.11248047 4.96132812 -13.11248047 4.96132812 -12.20703125 4.921875 C-6.9279987 4.54295586 -3.89363339 3.89363339 0 0 Z " fill="#818081" transform="translate(395,242)"/>
<path d="M0 0 C0.66 0.33 1.32 0.66 2 1 C2 6.19251337 2 6.19251337 1 9 C-1.40824701 11.14385712 -3.88863597 12.21224117 -7 13 C-10.5 12.75 -10.5 12.75 -13 12 C-13 11.67 -13 11.34 -13 11 C-9.7 10.34 -6.4 9.68 -3 9 C-2.01 6.03 -1.02 3.06 0 0 Z " fill="#979798" transform="translate(141,211)"/>
<path d="M0 0 C4.37859255 0.50522222 6.81651224 3.17827222 10 6 C7.92446352 6.5534764 6.15634036 7 4 7 C3.566875 5.5459375 3.566875 5.5459375 3.125 4.0625 C2.35785318 0.89335797 2.35785318 0.89335797 0 0 Z M3 7 C4.125 10.75 4.125 10.75 3 13 C1.68 11.35 0.36 9.7 -1 8 C0.32 7.67 1.64 7.34 3 7 Z " fill="#828182" transform="translate(270,268)"/>
<path d="M0 0 C0.33 0 0.66 0 1 0 C1 5.28 1 10.56 1 16 C-9.5039557 16.37072785 -9.5039557 16.37072785 -11.85546875 14.61328125 C-13 13 -13 13 -13 11 C-11.68 10.67 -10.36 10.34 -9 10 C-9 11.65 -9 13.3 -9 15 C-6.03 15 -3.06 15 0 15 C0 10.05 0 5.1 0 0 Z " fill="#5B595A" transform="translate(362,231)"/>
<path d="M0 0 C1.65 0.33 3.3 0.66 5 1 C6.125 6.625 6.125 6.625 5 10 C4.401875 9.38125 3.80375 8.7625 3.1875 8.125 C0.99188856 5.86323046 0.99188856 5.86323046 -2 4 C-1.01 4 -0.02 4 1 4 C0.67 2.68 0.34 1.36 0 0 Z " fill="#79787A" transform="translate(345,212)"/>
<path d="M0 0 C0.99 0.33 1.98 0.66 3 1 C2.01 1.495 2.01 1.495 1 2 C1.58803797 5.02419525 2.22678118 8.01758453 3 11 C-1.67692308 9.52307692 -1.67692308 9.52307692 -3.3125 6.875 C-3.539375 6.25625 -3.76625 5.6375 -4 5 C-2.68 3.35 -1.36 1.7 0 0 Z " fill="#8E8E91" transform="translate(203,297)"/>
<path d="M0 0 C2.31 1.98 4.62 3.96 7 6 C4.07735566 7.46132217 2.07536854 8.34099246 -1 9 C-1.66 8.01 -2.32 7.02 -3 6 C-2.505 5.566875 -2.01 5.13375 -1.5 4.6875 C0.33218192 3.00259517 0.33218192 3.00259517 0 0 Z " fill="#9F9B9C" transform="translate(90,235)"/>
<path d="M0 0 C4.62 0 9.24 0 14 0 C14 2.31 14 4.62 14 7 C13.34 6.67 12.68 6.34 12 6 C12 4.68 12 3.36 12 2 C8.37 2 4.74 2 1 2 C0.67 1.34 0.34 0.68 0 0 Z " fill="#918F8F" transform="translate(313,267)"/>
<path d="M0 0 C0.99 0.33 1.98 0.66 3 1 C2.01 3.31 1.02 5.62 0 8 C-1.65 7.67 -3.3 7.34 -5 7 C-5 6.01 -5 5.02 -5 4 C-2 2 -2 2 0 2 C0 1.34 0 0.68 0 0 Z " fill="#817F80" transform="translate(165,241)"/>
<path d="M0 0 C4.35535069 1.16142685 6.64619703 2.07699505 9 6 C7.71254964 6.38922918 6.41980403 6.76098036 5.125 7.125 C4.04605469 7.43824219 4.04605469 7.43824219 2.9453125 7.7578125 C2.30335938 7.83773437 1.66140625 7.91765625 1 8 C0.34 7.34 -0.32 6.68 -1 6 C0.32 4.68 1.64 3.36 3 2 C2.01 2 1.02 2 0 2 C0 1.34 0 0.68 0 0 Z " fill="#AAA8A1" transform="translate(156,212)"/>
<path d="M0 0 C1.74627478 2.61941217 2.38722388 4.03824877 3 7 C1.02 7.99 1.02 7.99 -1 9 C-1.28875 8.195625 -1.5775 7.39125 -1.875 6.5625 C-2.73262568 3.8673532 -2.73262568 3.8673532 -5 3 C-5 2.34 -5 1.68 -5 1 C-2.525 1.495 -2.525 1.495 0 2 C0 1.34 0 0.68 0 0 Z " fill="#7E7C7D" transform="translate(88,232)"/>
<path d="M0 0 C0.66 0.33 1.32 0.66 2 1 C1.91245449 2.75091019 1.80426627 4.50079551 1.6875 6.25 C1.62949219 7.22453125 1.57148438 8.1990625 1.51171875 9.203125 C1 12 1 12 -2 16 C-1.34 10.72 -0.68 5.44 0 0 Z " fill="#7D7C7B" transform="translate(313,223)"/>
<path d="M0 0 C1 3 1 3 0.25 5.0625 C-1 7 -1 7 -4 9 C-4 8.34 -4 7.68 -4 7 C-4.66 6.67 -5.32 6.34 -6 6 C-3.375 1.125 -3.375 1.125 0 0 Z " fill="#908E8F" transform="translate(176,234)"/>
<path d="M0 0 C0.66 1.32 1.32 2.64 2 4 C1.01 4.495 1.01 4.495 0 5 C-0.99 4.67 -1.98 4.34 -3 4 C-3.66 4.66 -4.32 5.32 -5 6 C-5.66 6 -6.32 6 -7 6 C-4.84615385 0 -4.84615385 0 0 0 Z " fill="#6B696B" transform="translate(250,273)"/>
<path d="M0 0 C2.375 0.3125 2.375 0.3125 5 1 C7 4 7 4 6.625 6.1875 C6.41875 6.785625 6.2125 7.38375 6 8 C4.68 8 3.36 8 2 8 C2.04125 7.05125 2.0825 6.1025 2.125 5.125 C2.34973818 1.89755144 2.34973818 1.89755144 0 0 Z " fill="#666565" transform="translate(267,268)"/>
<path d="M0 0 C0.66 0.33 1.32 0.66 2 1 C-0.5051971 4.48938167 -1.80462913 6.13199223 -6 7 C-6.33 7.99 -6.66 8.98 -7 10 C-6.52048204 5.68433833 -5.29764982 3.7980059 -2 1 C-1.34 0.67 -0.68 0.34 0 0 Z " fill="#8A8886" transform="translate(378,224)"/>
<path d="M0 0 C0.66 0 1.32 0 2 0 C5 6.625 5 6.625 5 10 C3.68 9.67 2.36 9.34 1 9 C-0.125 4.25 -0.125 4.25 1 2 C0.34 1.67 -0.32 1.34 -1 1 C-0.67 0.67 -0.34 0.34 0 0 Z " fill="#626265" transform="translate(204,298)"/>
<path d="M0 0 C0.99 0 1.98 0 3 0 C3 3.96 3 7.92 3 12 C0 9 0 9 -0.29296875 6.73828125 C-0.25816406 5.93777344 -0.22335938 5.13726562 -0.1875 4.3125 C-0.16042969 3.50425781 -0.13335937 2.69601562 -0.10546875 1.86328125 C-0.07066406 1.24839844 -0.03585938 0.63351562 0 0 Z " fill="#929292" transform="translate(201,274)"/>
<path d="M0 0 C0.99 0.66 1.98 1.32 3 2 C3.1875 4.625 3.1875 4.625 3 7 C2.34 7 1.68 7 1 7 C0.67 7.99 0.34 8.98 0 10 C0 9.34 0 8.68 0 8 C-0.99 7.67 -1.98 7.34 -3 7 C-2.34 6.67 -1.68 6.34 -1 6 C-0.34227572 2.97065509 -0.34227572 2.97065509 0 0 Z " fill="#9C9B9C" transform="translate(169,222)"/>
<path d="M0 0 C0.66 0.33 1.32 0.66 2 1 C2 1.99 2 2.98 2 4 C1.01 4.33 0.02 4.66 -1 5 C-1.495 5.680625 -1.99 6.36125 -2.5 7.0625 C-2.995 7.701875 -3.49 8.34125 -4 9 C-4.99 9 -5.98 9 -7 9 C-7 8.34 -7 7.68 -7 7 C-6.34 7 -5.68 7 -5 7 C-4.731875 6.401875 -4.46375 5.80375 -4.1875 5.1875 C-3.01506533 3.02775192 -1.80630718 1.64209744 0 0 Z " fill="#A3A2A3" transform="translate(98,215)"/>
<path d="M0 0 C0.66 0 1.32 0 2 0 C2.33 1.98 2.66 3.96 3 6 C0.69 6 -1.62 6 -4 6 C-2.7260411 3.96166576 -1.38938077 1.96147874 0 0 Z " fill="#656567" transform="translate(220,286)"/>
<path d="M0 0 C2.31 0 4.62 0 7 0 C5.68 0.33 4.36 0.66 3 1 C3 2.65 3 4.3 3 6 C3.66 6.33 4.32 6.66 5 7 C3.02 7 1.04 7 -1 7 C-0.67 4.69 -0.34 2.38 0 0 Z " fill="#605E5E" transform="translate(212,267)"/>
<path d="M0 0 C2.86453858 3.41016497 4.34703566 6.90694544 6 11 C5.01 11 4.02 11 3 11 C-1.06153846 4.6 -1.06153846 4.6 -0.75 1.5625 C-0.5025 1.046875 -0.255 0.53125 0 0 Z " fill="#918E8F" transform="translate(218,203)"/>
<path d="M0 0 C0 0.99 0 1.98 0 3 C-3.3 3 -6.6 3 -10 3 C-10 2.34 -10 1.68 -10 1 C-6.56484998 0.37542727 -3.50935186 0 0 0 Z " fill="#838282" transform="translate(343,246)"/>
<path d="M0 0 C1 3 1 3 0.22265625 4.82421875 C-0.8515625 6.54947917 -1.92578125 8.27473958 -3 10 C-3.66 9.34 -4.32 8.68 -5 8 C-3.35 5.36 -1.7 2.72 0 0 Z " fill="#858585" transform="translate(283,292)"/>
<path d="M0 0 C0.75 1.5625 0.75 1.5625 1 4 C-0.13084437 6.50286409 -1.52139516 8.67007722 -3 11 C-4.125 7.25 -4.125 7.25 -3 5 C-2.34 5 -1.68 5 -1 5 C-0.67 3.35 -0.34 1.7 0 0 Z " fill="#8B8989" transform="translate(245,215)"/>
<path d="M0 0 C4.31687378 0.35001679 6.19275066 1.77686187 9 5 C8.67 5.66 8.34 6.32 8 7 C6.88625 6.071875 6.88625 6.071875 5.75 5.125 C3.51198812 3.39562719 1.56260013 2.13893339 -1 1 C-0.67 0.67 -0.34 0.34 0 0 Z " fill="#828181" transform="translate(342,205)"/>
<path d="M0 0 C0.99 0 1.98 0 3 0 C3.042721 1.66611905 3.04063832 3.33382885 3 5 C2 6 2 6 -1.0625 6.0625 C-2.5165625 6.0315625 -2.5165625 6.0315625 -4 6 C-3.525625 5.566875 -3.05125 5.13375 -2.5625 4.6875 C-0.76313043 2.97690387 -0.76313043 2.97690387 0 0 Z " fill="#626061" transform="translate(261,303)"/>
<path d="M0 0 C0.99 0.33 1.98 0.66 3 1 C3.6875 3.0625 3.6875 3.0625 4 5 C6.31 5 8.62 5 11 5 C11 5.33 11 5.66 11 6 C5.67988107 6.34886026 5.67988107 6.34886026 3 6 C1 4.125 1 4.125 0 2 C0 1.34 0 0.68 0 0 Z " fill="#AEACAD" transform="translate(222,237)"/>
<path d="M0 0 C2.97 0.495 2.97 0.495 6 1 C5.34 2.32 4.68 3.64 4 5 C2.68 4.67 1.36 4.34 0 4 C0 2.66666667 0 1.33333333 0 0 Z " fill="#777577" transform="translate(124,222)"/>
<path d="M0 0 C1.98 0 3.96 0 6 0 C5.401875 0.20625 4.80375 0.4125 4.1875 0.625 C1.18981233 2.50926082 0.38638224 4.81132084 -1 8 C-3 4.25 -3 4.25 -3 2 C-2.01 2 -1.02 2 0 2 C0 1.34 0 0.68 0 0 Z " fill="#8F898E" transform="translate(334,216)"/>
<path d="M0 0 C0.33 0.99 0.66 1.98 1 3 C-1.40545638 4.20272819 -2.94996953 4.10071472 -5.625 4.0625 C-6.85089844 4.04896484 -6.85089844 4.04896484 -8.1015625 4.03515625 C-9.04128906 4.01775391 -9.04128906 4.01775391 -10 4 C-10 3.67 -10 3.34 -10 3 C-5.05 1.515 -5.05 1.515 0 0 Z " fill="#858586" transform="translate(270,299)"/>
<path d="M0 0 C2.97 0.495 2.97 0.495 6 1 C6.33 1.99 6.66 2.98 7 4 C7.66 4.33 8.32 4.66 9 5 C5.58978257 4.21302675 2.31114834 3.12880057 -1 2 C-0.67 1.34 -0.34 0.68 0 0 Z " fill="#8E8E8E" transform="translate(217,273)"/>
<path d="M0 0 C0.99 0.33 1.98 0.66 3 1 C2.67 2.32 2.34 3.64 2 5 C-0.97 4.505 -0.97 4.505 -4 4 C-2.68 3.67 -1.36 3.34 0 3 C0 2.01 0 1.02 0 0 Z " fill="#828282" transform="translate(258,243)"/>
<path d="M0 0 C0.99 0.33 1.98 0.66 3 1 C2.67 1.99 2.34 2.98 2 4 C-1.5625 5.1875 -1.5625 5.1875 -5 6 C-3.35 4.02 -1.7 2.04 0 0 Z " fill="#919191" transform="translate(104,235)"/>
<path d="M0 0 C1.65 0 3.3 0 5 0 C5.66 1.65 6.32 3.3 7 5 C4.69 4.34 2.38 3.68 0 3 C0 2.01 0 1.02 0 0 Z " fill="#858488" transform="translate(213,289)"/>
<path d="M0 0 C0.99 0.495 0.99 0.495 2 1 C2 1.66 2 2.32 2 3 C1.34 3 0.68 3 0 3 C0 2.01 0 1.02 0 0 Z M-1 3 C0.125 6.75 0.125 6.75 -1 9 C-2.32 7.35 -3.64 5.7 -5 4 C-3.68 3.67 -2.36 3.34 -1 3 Z " fill="#888788" transform="translate(274,272)"/>
<path d="M0 0 C0 2 0 2 -1.1875 3.6875 C-3 5 -3 5 -5.6875 4.6875 C-6.450625 4.460625 -7.21375 4.23375 -8 4 C-3.375 0 -3.375 0 0 0 Z " fill="#8F8E90" transform="translate(399,235)"/>
<path d="M0 0 C0.99 0.33 1.98 0.66 3 1 C2.45276317 4.37462715 1.9451 6.08235 0 9 C-1.125 3.375 -1.125 3.375 0 0 Z " fill="#5E5E5B" transform="translate(372,231)"/>
<path d="M0 0 C0.33 1.32 0.66 2.64 1 4 C-0.32 4.99 -1.64 5.98 -3 7 C-4.32 6.34 -5.64 5.68 -7 5 C-6.21625 4.731875 -5.4325 4.46375 -4.625 4.1875 C-1.71885077 3.15185568 -1.71885077 3.15185568 0 0 Z " fill="#7E7E7E" transform="translate(349,232)"/>
<path d="M0 0 C3.96 0 7.92 0 12 0 C12 0.33 12 0.66 12 1 C11.31292969 1.04898438 10.62585938 1.09796875 9.91796875 1.1484375 C8.56638672 1.26058594 8.56638672 1.26058594 7.1875 1.375 C6.29417969 1.44460937 5.40085937 1.51421875 4.48046875 1.5859375 C1.75601501 1.86645036 1.75601501 1.86645036 -1 4 C-0.67 2.68 -0.34 1.36 0 0 Z " fill="#7E7A7A" transform="translate(385,229)"/>
<path d="M0 0 C1.32 0.33 2.64 0.66 4 1 C4 1.66 4 2.32 4 3 C4.66 3 5.32 3 6 3 C6 3.66 6 4.32 6 5 C4.68 5.33 3.36 5.66 2 6 C1.34 4.02 0.68 2.04 0 0 Z " fill="#797575" transform="translate(95,242)"/>
<path d="M0 0 C1.32 0.33 2.64 0.66 4 1 C4.33 2.65 4.66 4.3 5 6 C3.2925002 4.71937515 1.62626404 3.38232443 0 2 C0 1.34 0 0.68 0 0 Z " fill="#979697" transform="translate(82,235)"/>
<path d="M0 0 C0.98120464 3.05263664 0.98120464 4.94736336 0 8 C-1.32 7.67 -2.64 7.34 -4 7 C-2.68 4.69 -1.36 2.38 0 0 Z " fill="#898888" transform="translate(232,217)"/>
<path d="M0 0 C2.55028983 1.27514492 2.93081711 2.40341297 4 5 C4 5.99 4 6.98 4 8 C3.01 7.67 2.02 7.34 1 7 C0.67 4.69 0.34 2.38 0 0 Z " fill="#7D7B7C" transform="translate(224,216)"/>
<path d="" fill="#FFFFFF" transform="translate(0,0)"/>
<path d="" fill="#FFFFFF" transform="translate(0,0)"/>
<path d="" fill="#FFFFFF" transform="translate(0,0)"/>
<path d="" fill="#FFFFFF" transform="translate(0,0)"/>
<path d="" fill="#FFFFFF" transform="translate(0,0)"/>
<path d="" fill="#FFFFFF" transform="translate(0,0)"/>
<path d="" fill="#FFFFFF" transform="translate(0,0)"/>
<path d="" fill="#FFFFFF" transform="translate(0,0)"/>
<path d="" fill="#FFFFFF" transform="translate(0,0)"/>
<path d="" fill="#FFFFFF" transform="translate(0,0)"/>
<path d="" fill="#FFFFFF" transform="translate(0,0)"/>
<path d="" fill="#FFFFFF" transform="translate(0,0)"/>
<path d="" fill="#FFFFFF" transform="translate(0,0)"/>
<path d="" fill="#FFFFFF" transform="translate(0,0)"/>
<path d="" fill="#FFFFFF" transform="translate(0,0)"/>
<path d="" fill="#FFFFFF" transform="translate(0,0)"/>
<path d="" fill="#FFFFFF" transform="translate(0,0)"/>
<path d="" fill="#FFFFFF" transform="translate(0,0)"/>
<path d="" fill="#FFFFFF" transform="translate(0,0)"/>
<path d="" fill="#FFFFFF" transform="translate(0,0)"/>
<path d="" fill="#FFFFFF" transform="translate(0,0)"/>
<path d="" fill="#FFFFFF" transform="translate(0,0)"/>
<path d="" fill="#FFFFFF" transform="translate(0,0)"/>
<path d="" fill="#FFFFFF" transform="translate(0,0)"/>
<path d="" fill="#FFFFFF" transform="translate(0,0)"/>
<path d="" fill="#FFFFFF" transform="translate(0,0)"/>
<path d="" fill="#FFFFFF" transform="translate(0,0)"/>
<path d="" fill="#FFFFFF" transform="translate(0,0)"/>
<path d="" fill="#FFFFFF" transform="translate(0,0)"/>
<path d="" fill="#FFFFFF" transform="translate(0,0)"/>
<path d="" fill="#FFFFFF" transform="translate(0,0)"/>
<path d="" fill="#FFFFFF" transform="translate(0,0)"/>
<path d="" fill="#FFFFFF" transform="translate(0,0)"/>
<path d="" fill="#FFFFFF" transform="translate(0,0)"/>
<path d="" fill="#FFFFFF" transform="translate(0,0)"/>
<path d="" fill="#FFFFFF" transform="translate(0,0)"/>
<path d="" fill="#FFFFFF" transform="translate(0,0)"/>
<path d="" fill="#FFFFFF" transform="translate(0,0)"/>
<path d="" fill="#FFFFFF" transform="translate(0,0)"/>
<path d="" fill="#FFFFFF" transform="translate(0,0)"/>
<path d="" fill="#FFFFFF" transform="translate(0,0)"/>
<path d="" fill="#FFFFFF" transform="translate(0,0)"/>
<path d="" fill="#FFFFFF" transform="translate(0,0)"/>
<path d="" fill="#FFFFFF" transform="translate(0,0)"/>
<path d="" fill="#FFFFFF" transform="translate(0,0)"/>
<path d="" fill="#FFFFFF" transform="translate(0,0)"/>
<path d="" fill="#FFFFFF" transform="translate(0,0)"/>
<path d="" fill="#FFFFFF" transform="translate(0,0)"/>
<path d="" fill="#FFFFFF" transform="translate(0,0)"/>
<path d="" fill="#FFFFFF" transform="translate(0,0)"/>
<path d="" fill="#FFFFFF" transform="translate(0,0)"/>
<path d="" fill="#FFFFFF" transform="translate(0,0)"/>
<path d="" fill="#FFFFFF" transform="translate(0,0)"/>
<path d="" fill="#FFFFFF" transform="translate(0,0)"/>
<path d="" fill="#FFFFFF" transform="translate(0,0)"/>
<path d="" fill="#FFFFFF" transform="translate(0,0)"/>
<path d="" fill="#FFFFFF" transform="translate(0,0)"/>
<path d="" fill="#FFFFFF" transform="translate(0,0)"/>
<path d="" fill="#FFFFFF" transform="translate(0,0)"/>
<path d="" fill="#FFFFFF" transform="translate(0,0)"/>
<path d="" fill="#FFFFFF" transform="translate(0,0)"/>
<path d="" fill="#FFFFFF" transform="translate(0,0)"/>
<path d="" fill="#FFFFFF" transform="translate(0,0)"/>
<path d="" fill="#FFFFFF" transform="translate(0,0)"/>
<path d="" fill="#FFFFFF" transform="translate(0,0)"/>
<path d="" fill="#FFFFFF" transform="translate(0,0)"/>
<path d="" fill="#FFFFFF" transform="translate(0,0)"/>
<path d="" fill="#FFFFFF" transform="translate(0,0)"/>
<path d="" fill="#FFFFFF" transform="translate(0,0)"/>
<path d="" fill="#FFFFFF" transform="translate(0,0)"/>
<path d="" fill="#FFFFFF" transform="translate(0,0)"/>
<path d="" fill="#FFFFFF" transform="translate(0,0)"/>
<path d="" fill="#FFFFFF" transform="translate(0,0)"/>
<path d="" fill="#FFFFFF" transform="translate(0,0)"/>
<path d="" fill="#FFFFFF" transform="translate(0,0)"/>
<path d="" fill="#FFFFFF" transform="translate(0,0)"/>
<path d="" fill="#FFFFFF" transform="translate(0,0)"/>
<path d="" fill="#FFFFFF" transform="translate(0,0)"/>
<path d="" fill="#FFFFFF" transform="translate(0,0)"/>
<path d="" fill="#FFFFFF" transform="translate(0,0)"/>
<path d="" fill="#FFFFFF" transform="translate(0,0)"/>
<path d="" fill="#FFFFFF" transform="translate(0,0)"/>
<path d="" fill="#FFFFFF" transform="translate(0,0)"/>
<path d="" fill="#FFFFFF" transform="translate(0,0)"/>
<path d="" fill="#FFFFFF" transform="translate(0,0)"/>
<path d="" fill="#FFFFFF" transform="translate(0,0)"/>
<path d="" fill="#FFFFFF" transform="translate(0,0)"/>
<path d="" fill="#FFFFFF" transform="translate(0,0)"/>
<path d="" fill="#FFFFFF" transform="translate(0,0)"/>
<path d="" fill="#FFFFFF" transform="translate(0,0)"/>
<path d="" fill="#FFFFFF" transform="translate(0,0)"/>
<path d="" fill="#FFFFFF" transform="translate(0,0)"/>
<path d="" fill="#FFFFFF" transform="translate(0,0)"/>
<path d="" fill="#FFFFFF" transform="translate(0,0)"/>
<path d="" fill="#FFFFFF" transform="translate(0,0)"/>
<path d="" fill="#FFFFFF" transform="translate(0,0)"/>
<path d="" fill="#FFFFFF" transform="translate(0,0)"/>
<path d="" fill="#FFFFFF" transform="translate(0,0)"/>
</svg>
